# xmcd
#
# Track frame offsets:
#	150
#	14461
#	28745
#	44624
#	63675
#	75862
#	103082
#	117540
#	122330
#	150725
#	174049
#	207873
#
# Disc length: 3071 seconds
#
# Revision: 1
# Processed by: cddbd v1.5.2PL0 Copyright (c) Steve Scherf et al.
# Submitted via: EZCDAudioConverter 1.3.4.1
#
DISCID=960bfd0c
DTITLE=V/A - Far Out Spaced Oddyssey 1/2
DYEAR=2010
DGENRE=
TTITLE0=Jose Mauro - Apocalipse
TTITLE1=Piri - Reza Brava
TTITLE2=Aleuda - Passarinho
TTITLE3=Aleuda - Galope [APE Remix]
TTITLE4=Joyce, Nana Vasconcelos, Mauricio Maestro - Tudo Bonito
TTITLE5=Binario - Diretriz
TTITLE6=Rabotnik - Jonas
TTITLE7=Binario - E Ai Galera Voltei
TTITLE8=Kirk Degiorgio's Offworld - Black Magic
TTITLE9=Azymuth - Caca A Raposa
TTITLE10=Troubleman - Switch
TTITLE11=Azymuth - Os Cara La [Rabotnik Remix]
EXTD=
EXTT0=
EXTT1=
EXTT2=
EXTT3=
EXTT4=
EXTT5=
EXTT6=
EXTT7=
EXTT8=
EXTT9=
EXTT10=
EXTT11=
PLAYORDER=
